0
SECTION
2
HEADER
9
$INSUNITS
70
4
9
$ACADVER
1
AC1014
9
$HANDSEED
5
FFFF
0
ENDSEC
0
SECTION
2
TABLES
0
TABLE
2
VPORT
5
8
100
AcDbSymbolTable
0
ENDTAB
0
TABLE
2
LTYPE
5
5
100
AcDbSymbolTable
0
LTYPE
5
14
100
AcDbSymbolTableRecord
100
AcDbLinetypeTableRecord
2
BYBLOCK
70
0
0
LTYPE
5
15
100
AcDbSymbolTableRecord
100
AcDbLinetypeTableRecord
2
BYLAYER
70
0
0
ENDTAB
0
TABLE
2
LAYER
5
2
100
AcDbSymbolTable
70
2
0
LAYER
5
50
100
AcDbSymbolTableRecord
100
AcDbLayerTableRecord
2
0
70
0
6
CONTINUOUS
0
ENDTAB
0
TABLE
2
STYLE
5
3
100
AcDbSymbolTable
70
1
0
STYLE
5
11
100
AcDbSymbolTableRecord
100
AcDbTextStyleTableRecord
2
STANDARD
70
0
0
ENDTAB
0
TABLE
2
VIEW
5
6
100
AcDbSymbolTable
70
0
0
ENDTAB
0
TABLE
2
UCS
5
7
100
AcDbSymbolTable
70
0
0
ENDTAB
0
TABLE
2
APPID
5
9
100
AcDbSymbolTable
70
2
0
APPID
5
12
100
AcDbSymbolTableRecord
100
AcDbRegAppTableRecord
2
ACAD
70
0
0
ENDTAB
0
TABLE
2
DIMSTYLE
5
A
100
AcDbSymbolTable
70
1
0
ENDTAB
0
TABLE
2
BLOCK_RECORD
5
1
100
AcDbSymbolTable
70
1
0
BLOCK_RECORD
5
1F
100
AcDbSymbolTableRecord
100
AcDbBlockTableRecord
2
*MODEL_SPACE
0
BLOCK_RECORD
5
1B
100
AcDbSymbolTableRecord
100
AcDbBlockTableRecord
2
*PAPER_SPACE
0
ENDTAB
0
ENDSEC
0
SECTION
2
BLOCKS
0
BLOCK
5
20
100
AcDbEntity
100
AcDbBlockBegin
2
*MODEL_SPACE
0
ENDBLK
5
21
100
AcDbEntity
100
AcDbBlockEnd
0
BLOCK
5
1C
100
AcDbEntity
100
AcDbBlockBegin
2
*PAPER_SPACE
0
ENDBLK
5
1D
100
AcDbEntity
100
AcDbBlockEnd
0
ENDSEC
0
SECTION
2
ENTITIES
0
LWPOLYLINE
5
100
100
AcDbEntity
8
0
100
AcDbPolyline
90
97
70
1
43
0.0
10
-910
20
-7.0000000000000027
42
-0.41421356237309193
10
-903
20
0
10
-7.0000000000000018
20
0
42
-0.41421356237309503
10
0
20
-7.0000000000000018
10
1.6653345369377348e-15
20
-21
42
0.35078105935821235
10
-5
20
-25
42
0.79999999999999882
10
-15
20
-25
42
0.80000000000000215
10
-24.999999999999996
20
-25.000000000000004
42
0.79999999999999993
10
-35
20
-25
42
0.80000000000000027
10
-45
20
-25
42
0.80000000000000249
10
-55
20
-25.000000000000007
42
0.79999999999999816
10
-65
20
-24.999999999999993
42
0.79999999999999882
10
-75
20
-25
42
0.80000000000000182
10
-85
20
-25
42
0.80000000000000027
10
-95
20
-25
42
0.80000000000000027
10
-105
20
-25
42
0.80000000000000104
10
-115
20
-25
42
0.80000000000000027
10
-125
20
-25
42
0.80000000000000027
10
-135
20
-25
42
0.80000000000000104
10
-145
20
-25
42
0.80000000000000027
10
-155
20
-25
42
0.80000000000000027
10
-165
20
-25
42
0.80000000000000104
10
-175
20
-25
42
0.80000000000000027
10
-185
20
-25
42
0.80000000000000027
10
-195
20
-25
42
0.80000000000000104
10
-205
20
-25
42
0.80000000000000027
10
-215
20
-25
42
0.80000000000000027
10
-225
20
-25
42
0.80000000000000104
10
-235
20
-25
42
0.80000000000000027
10
-245
20
-25
42
0.80000000000000027
10
-255
20
-25
42
0.80000000000000104
10
-265
20
-25
42
0.80000000000000027
10
-275
20
-25
42
0.80000000000000027
10
-285
20
-25
42
0.80000000000000104
10
-295
20
-25
42
0.80000000000000027
10
-305
20
-25
42
0.80000000000000027
10
-315
20
-25
42
0.80000000000000104
10
-325
20
-25
42
0.80000000000000027
10
-335
20
-25
42
0.80000000000000027
10
-345
20
-25
42
0.80000000000000104
10
-355
20
-25
42
0.80000000000000027
10
-365
20
-25
42
0.80000000000000027
10
-375
20
-25
42
0.80000000000000104
10
-385
20
-25
42
0.80000000000000027
10
-395
20
-25
42
0.80000000000000027
10
-405
20
-25
42
0.80000000000000104
10
-415
20
-25
42
0.80000000000000027
10
-425
20
-25
42
0.80000000000000027
10
-435
20
-25
42
0.80000000000000104
10
-445
20
-25
42
0.80000000000000027
10
-455
20
-25
42
0.80000000000000027
10
-465
20
-25
42
0.80000000000000104
10
-475
20
-25
42
0.80000000000000027
10
-485
20
-25
42
0.80000000000000027
10
-495
20
-25
42
0.80000000000000104
10
-505
20
-25
42
0.80000000000000027
10
-515
20
-25
42
0.80000000000000027
10
-525
20
-25
42
0.80000000000000104
10
-535
20
-25
42
0.80000000000000027
10
-545
20
-25
42
0.80000000000000027
10
-555
20
-25
42
0.80000000000000104
10
-565
20
-25
42
0.80000000000000027
10
-575
20
-25
42
0.80000000000000027
10
-585
20
-25
42
0.80000000000000104
10
-595
20
-25
42
0.80000000000000027
10
-605
20
-25
42
0.80000000000000027
10
-615
20
-25
42
0.80000000000000104
10
-625
20
-25
42
0.80000000000000027
10
-635
20
-25
42
0.80000000000000027
10
-645
20
-25
42
0.80000000000000104
10
-655
20
-25
42
0.80000000000000027
10
-665
20
-25
42
0.80000000000000027
10
-675
20
-25
42
0.80000000000000104
10
-685
20
-25
42
0.80000000000000027
10
-695
20
-25
42
0.80000000000000027
10
-705
20
-25
42
0.80000000000000104
10
-715
20
-25
42
0.80000000000000027
10
-725
20
-25
42
0.80000000000000027
10
-735
20
-25
42
0.80000000000000104
10
-745
20
-25
42
0.80000000000000027
10
-755
20
-25
42
0.80000000000000027
10
-765
20
-25
42
0.80000000000000104
10
-775
20
-25
42
0.80000000000000027
10
-785
20
-25
42
0.80000000000000027
10
-795
20
-25
42
0.80000000000000104
10
-805
20
-25
42
0.80000000000000027
10
-815
20
-25
42
0.80000000000000027
10
-825
20
-25
42
0.80000000000000104
10
-835
20
-25
42
0.80000000000000027
10
-845
20
-25
42
0.80000000000000027
10
-855
20
-25
42
0.80000000000000104
10
-865
20
-25
42
0.80000000000000027
10
-875
20
-25
42
0.80000000000000027
10
-885
20
-25
42
0.80000000000000104
10
-895
20
-25
42
0.80000000000000027
10
-905
20
-25
42
0.35078105935822451
10
-910
20
-21
0
LWPOLYLINE
5
101
100
AcDbEntity
8
0
100
AcDbPolyline
90
4
70
1
43
0.0
10
-864.85000000000014
20
-6.2499999999999067
10
-898.35000000000014
20
-6.2500000000000009
42
0.99999999999999989
10
-898.35000000000014
20
-12.75
10
-864.85000000000014
20
-12.750000000000046
42
0.99999999999999989
0
CIRCLE
5
102
100
AcDbEntity
8
0
100
AcDbCircle
10
-11.500000000000002
20
-9.5000000000000568
30
0
40
2.6000000000000001
0
ENDSEC
0
SECTION
2
OBJECTS
0
DICTIONARY
5
C
100
AcDbDictionary
3
ACAD_GROUP
350
D
3
ACAD_MLINESTYLE
350
17
0
DICTIONARY
5
D
100
AcDbDictionary
0
DICTIONARY
5
1A
330
C
100
AcDbDictionary
0
DICTIONARY
5
17
100
AcDbDictionary
0
ENDSEC
0
EOF
